<svg width="20" height="20" viewBox="0 0 22 22" fill="none" xmlns="http://www.w3.org/2000/svg">
<g clip-path="url(#clip0_624_174)">
<path d="M19.734 12.1H14.3V9.9H19.734C19.4902 7.96036 18.6075 6.1571 17.2252 4.77478C15.8429 3.39245 14.0396 2.50977 12.1 2.266V7.7H9.9V2.266C7.96036 2.50977 6.1571 3.39245 4.77478 4.77478C3.39245 6.1571 2.50977 7.96036 2.266 9.9H7.7V12.1H2.266C2.50977 14.0396 3.39245 15.8429 4.77478 17.2252C6.1571 18.6075 7.96036 19.4902 9.9 19.734V14.3H12.1V19.734C14.0396 19.4902 15.8429 18.6075 17.2252 17.2252C18.6075 15.8429 19.4902 14.0396 19.734 12.1V12.1ZM11 22C8.08262 22 5.28473 20.8411 3.22183 18.7782C1.15893 16.7153 0 13.9174 0 11C0 8.08262 1.15893 5.28473 3.22183 3.22183C5.28473 1.15893 8.08262 0 11 0C13.9174 0 16.7153 1.15893 18.7782 3.22183C20.8411 5.28473 22 8.08262 22 11C22 13.9174 20.8411 16.7153 18.7782 18.7782C16.7153 20.8411 13.9174 22 11 22Z" fill="url(#paint1_linear)"/>
</g>
<defs>

<linearGradient id="paint0_linear" x1="11.9987" y1="3.98071" x2="11.9987" y2="20" gradientUnits="userSpaceOnUse">
<stop stop-color="#746be6"/>
<stop offset="1" stop-color="#6041de"/>
</linearGradient>
<linearGradient id="paint1_linear" x1="14.542" y1="6.93005" x2="14.542" y2="16.0062" gradientUnits="userSpaceOnUse">
<stop stop-color="#746be6"/>
<stop offset="1" stop-color="#6041de"/>
</linearGradient>

<clipPath id="clip0_624_174">
<rect width="22" height="22" fill="white"/>
</clipPath>
</defs>
</svg>


