<svg width="24" height="24" viewBox="0 0 20 20" fill="none" xmlns="http://www.w3.org/2000/svg">
<path d="M9.9999 11.5001C10.3977 11.5001 10.7793 11.342 11.0606 11.0607C11.3419 10.7794 11.4999 10.3979 11.4999 10.0001C11.4999 9.60226 11.3419 9.22073 11.0606 8.93942C10.7793 8.65812 10.3977 8.50008 9.9999 8.50008C9.60207 8.50008 9.22054 8.65812 8.93924 8.93942C8.65793 9.22073 8.4999 9.60226 8.4999 10.0001C8.4999 10.3979 8.65793 10.7794 8.93924 11.0607C9.22054 11.342 9.60207 11.5001 9.9999 11.5001ZM4.9999 10.0001C5.01787 8.69104 5.54865 7.44128 6.47817 6.51937C7.40769 5.59747 8.66177 5.07699 9.97092 5.06979C11.2801 5.06258 12.5398 5.56923 13.4794 6.48085C14.419 7.39247 14.9635 8.63632 14.9959 9.94508L12.5839 12.3581C13.1997 11.6827 13.5269 10.7931 13.4953 9.87961C13.4637 8.96613 13.0759 8.10127 12.4149 7.47002C11.7538 6.83877 10.872 6.49124 9.95804 6.50178C9.04407 6.51231 8.17051 6.88006 7.52419 7.52638C6.87787 8.17269 6.51012 9.04626 6.49959 9.96023C6.48906 10.8742 6.83658 11.756 7.46783 12.417C8.09908 13.0781 8.96394 13.4659 9.87742 13.4975C10.7909 13.529 11.6805 13.2019 12.3559 12.5861L10.2729 14.6691C10.1695 14.7724 10.0733 14.8827 9.9849 14.9991C8.66168 14.9951 7.39402 14.4667 6.45976 13.5296C5.52551 12.5926 5.00089 11.3233 5.0009 10.0001H4.9999ZM9.9949 3.50008C13.2749 3.50008 15.9859 5.93008 16.4289 9.08708C16.9276 8.96214 17.4507 8.97285 17.9439 9.11808C17.7788 7.62482 17.1964 6.20825 16.2635 5.03062C15.3306 3.853 14.0849 2.96195 12.669 2.45952C11.2532 1.9571 9.72444 1.86362 8.25791 2.1898C6.79138 2.51597 5.44637 3.24861 4.37694 4.3038C3.30751 5.35899 2.5569 6.69405 2.21109 8.15608C1.86528 9.6181 1.93826 11.148 2.42165 12.5704C2.90505 13.9929 3.77932 15.2505 4.94433 16.1991C6.10934 17.1477 7.51798 17.749 9.0089 17.9341C9.0179 17.8411 9.0339 17.7471 9.0579 17.6521L9.3549 16.4641C7.69582 16.2988 6.16374 15.5022 5.07561 14.2389C3.98748 12.9756 3.42657 11.3424 3.5089 9.67718C3.59124 8.01193 4.31053 6.44204 5.51797 5.29228C6.72541 4.14252 8.32861 3.50087 9.9959 3.50008H9.9949ZM10.9799 15.3761L15.8079 10.5481C15.9796 10.3663 16.1861 10.2208 16.415 10.1202C16.644 10.0197 16.8908 9.96603 17.1408 9.9625C17.3909 9.95898 17.6391 10.0056 17.8708 10.0997C18.1025 10.1938 18.3129 10.3334 18.4897 10.5103C18.6665 10.6871 18.806 10.8977 18.9 11.1294C18.994 11.3611 19.0406 11.6093 19.037 11.8594C19.0334 12.1094 18.9796 12.3562 18.879 12.5851C18.7783 12.814 18.6327 13.0204 18.4509 13.1921L13.6239 18.0201C13.3426 18.3016 12.99 18.5014 12.6039 18.5981L11.1059 18.9731C10.9569 19.0101 10.8009 19.0079 10.653 18.9667C10.5051 18.9256 10.3704 18.8469 10.2619 18.7383C10.1534 18.6297 10.0748 18.4949 10.0338 18.347C9.99281 18.1991 9.99078 18.043 10.0279 17.8941L10.4019 16.3971C10.4978 16.0107 10.6977 15.6579 10.9799 15.3771V15.3761Z" fill="url(#paint1_linear)"/>
<defs>
<linearGradient id="paint0_linear" x1="11.9987" y1="3.98071" x2="11.9987" y2="20" gradientUnits="userSpaceOnUse">
<stop stop-color="#746be6"/>
<stop offset="1" stop-color="#6041de"/>
</linearGradient>
<linearGradient id="paint1_linear" x1="14.542" y1="6.93005" x2="14.542" y2="16.0062" gradientUnits="userSpaceOnUse">
<stop stop-color="#746be6"/>
<stop offset="1" stop-color="#6041de"/>
</linearGradient>
</defs>
</svg>
